<svg width="151" height="14" viewBox="0 0 151 14" fill="none" xmlns="http://www.w3.org/2000/svg">
<path d="M115.496 1.66823C115.958 1.2061 116.598 0.97504 117.417 0.97504C117.905 0.97504 118.255 1.00145 118.466 1.05426C118.678 1.10708 118.823 1.21931 118.902 1.39095C118.981 1.54939 119.021 1.81347 119.021 2.18317V11.353C119.021 11.7492 118.975 12.0462 118.882 12.2443C118.79 12.4291 118.618 12.5546 118.367 12.6206C118.116 12.6866 117.72 12.7196 117.179 12.7196C117.139 12.7196 117.12 12.7592 117.12 12.8384C117.12 12.9177 117.139 12.9573 117.179 12.9573C117.654 12.9573 118.024 12.9507 118.288 12.9375L119.813 12.9177L121.378 12.9375C121.642 12.9507 122.005 12.9573 122.467 12.9573C122.493 12.9573 122.507 12.9177 122.507 12.8384C122.507 12.7592 122.493 12.7196 122.467 12.7196C121.912 12.7196 121.51 12.6866 121.259 12.6206C121.008 12.5546 120.836 12.4291 120.744 12.2443C120.665 12.0594 120.625 11.7624 120.625 11.353V2.22278C120.625 1.83987 120.665 1.5692 120.744 1.41076C120.823 1.23911 120.968 1.12688 121.18 1.07407C121.391 1.00805 121.741 0.97504 122.229 0.97504C123.088 0.97504 123.735 1.1995 124.17 1.64842C124.606 2.09734 124.87 2.83014 124.962 3.84682C124.962 3.87322 124.995 3.88643 125.062 3.88643C125.141 3.88643 125.18 3.87322 125.18 3.84682C125.18 3.34508 125.2 2.6849 125.24 1.86628C125.293 1.04766 125.339 0.453499 125.378 0.083799C125.378 0.0309845 125.339 0.00457764 125.26 0.00457764C125.194 0.00457764 125.154 0.0309845 125.141 0.083799C125.075 0.281852 124.929 0.413888 124.705 0.479906C124.481 0.545924 124.124 0.578933 123.636 0.578933L122.289 0.598738C121.417 0.625145 120.592 0.638349 119.813 0.638349C118.281 0.638349 116.955 0.618544 115.832 0.578933C115.106 0.578933 114.743 0.433694 114.743 0.143216C114.743 0.0771977 114.703 0.044189 114.624 0.044189C114.545 0.044189 114.505 0.0771977 114.505 0.143216C114.505 0.56573 114.472 1.1929 114.406 2.02472C114.34 2.85655 114.281 3.46391 114.228 3.84682C114.228 3.87322 114.261 3.88643 114.327 3.88643C114.406 3.88643 114.452 3.87322 114.466 3.84682C114.69 2.84334 115.033 2.11715 115.496 1.66823Z" fill="#FFDF96"/>
<path d="M36.7109 7.80264C35.9069 7.57081 35.0892 7.60552 34.3521 7.8546C34.2622 8.67757 34.4287 9.53541 34.8838 10.3019C34.4257 9.53032 33.7463 8.97131 32.9745 8.65764C32.4382 9.13721 32.026 9.76872 31.812 10.5112C32.0201 9.78924 32.0137 9.05633 31.8306 8.38065C31.031 8.30922 30.2023 8.47956 29.4592 8.92094C30.2454 8.4539 30.8112 7.75737 31.1217 6.96751C30.6268 6.33619 29.9359 5.84912 29.1065 5.60995C29.8858 5.83467 30.678 5.80896 31.3972 5.58034C31.4093 4.87132 31.2311 4.15033 30.8426 3.49596C31.2504 4.18286 31.8337 4.70129 32.5014 5.02813C33.2035 4.52743 33.7479 3.79473 34.0054 2.90143C33.7556 3.76805 33.8149 4.65049 34.118 5.43077C34.8477 5.45484 35.5928 5.27751 36.2672 4.8769C35.5892 5.27961 35.0752 5.85296 34.7474 6.50963C35.2383 7.10958 35.91 7.57169 36.7109 7.80264Z" fill="#FFDF96"/>
<path d="M36.2672 4.8769C36.3058 4.85393 36.344 4.83041 36.3816 4.80634L36.3837 4.81026C36.3446 4.83174 36.3058 4.85395 36.2672 4.8769Z" fill="#FFDF96"/>
<path d="M34.0054 2.90143C34.0178 2.85821 34.0295 2.81495 34.0405 2.77167L34.0447 2.77305C34.0309 2.81546 34.0178 2.85825 34.0054 2.90143Z" fill="#FFDF96"/>
<path d="M30.8426 3.49596C30.791 3.40912 30.7366 3.32497 30.6797 3.24356L30.699 3.23223C30.7432 3.32119 30.791 3.40916 30.8426 3.49596Z" fill="#FFDF96"/>
<path d="M29.1065 5.60995C29.0095 5.58197 28.9122 5.55788 28.815 5.53757L28.8213 5.51606C28.9144 5.55063 29.0095 5.58199 29.1065 5.60995Z" fill="#FFDF96"/>
<path d="M29.4592 8.92094C29.4048 8.95326 29.3515 8.98668 29.2992 9.02115L29.2944 9.01368C29.3498 8.98421 29.4047 8.95331 29.4592 8.92094Z" fill="#FFDF96"/>
<path d="M31.812 10.5112C31.7945 10.572 31.7785 10.6329 31.764 10.6938L31.7554 10.6916C31.7756 10.6322 31.7945 10.5721 31.812 10.5112Z" fill="#FFDF96"/>
<path d="M36.7371 7.81009L36.7234 7.80621L36.7137 7.80343L36.7219 7.80574C36.7269 7.80716 36.7321 7.8086 36.7371 7.81009Z" fill="#FFDF96"/>
<path d="M34.8978 10.3252L34.8904 10.313L34.8852 10.3042L34.8942 10.3192L34.8978 10.3252Z" fill="#FFDF96"/>
<path fill-rule="evenodd" clip-rule="evenodd" d="M32.5865 13.1949C31.3585 13.1949 30.2626 12.9111 29.2988 12.3433C28.3481 11.7624 27.6087 10.9833 27.0806 10.0063C26.5656 9.01601 26.3082 7.93992 26.3082 6.77801C26.3082 5.41804 26.6515 4.25613 27.338 3.29227C28.0246 2.3152 28.9027 1.5824 29.9721 1.09387C31.0548 0.60534 32.1573 0.361074 33.2796 0.361074C34.534 0.361074 35.6365 0.658154 36.5871 1.25231C37.5378 1.83327 38.264 2.60568 38.7657 3.56954C39.2807 4.5334 39.5381 5.55668 39.5381 6.63937C39.5381 7.84089 39.2212 8.94339 38.5875 9.94686C37.9537 10.9503 37.1021 11.7425 36.0326 12.3235C34.9763 12.9045 33.8276 13.1949 32.5865 13.1949ZM33.2796 12.7592C34.1247 12.7592 34.8839 12.5414 35.5573 12.1056C36.2306 11.6699 36.7588 11.0362 37.1417 10.2043C37.5378 9.35931 37.7358 8.35583 37.7358 7.19392C37.7358 5.96599 37.518 4.87009 37.0823 3.90623C36.6598 2.94237 36.0458 2.18977 35.2404 1.64842C34.4482 1.10708 33.5239 0.836402 32.4676 0.836402C31.0944 0.836402 30.025 1.30513 29.2592 2.24258C28.4933 3.16683 28.1104 4.44758 28.1104 6.08482C28.1104 7.33916 28.3283 8.47467 28.764 9.49134C29.1997 10.508 29.8071 11.3068 30.5861 11.8878C31.3783 12.4687 32.2762 12.7592 33.2796 12.7592Z" fill="#FFDF96"/>
<path fill-rule="evenodd" clip-rule="evenodd" d="M8.21922 6.7582C7.37419 6.23006 6.25189 5.96599 4.85231 5.96599C4.37698 5.96599 3.84224 5.999 3.24808 6.06502V2.302C3.24808 1.9455 3.28769 1.67483 3.36691 1.48998C3.44613 1.30513 3.58477 1.17969 3.78282 1.11368C3.98087 1.03446 4.28455 0.994845 4.69387 0.994845H5.72374C6.38392 0.994845 6.93847 1.21931 7.3874 1.66823C7.84952 2.11715 8.1598 2.75752 8.31824 3.58935C8.33145 3.62896 8.37106 3.64876 8.43708 3.64876C8.5163 3.63556 8.55591 3.60915 8.55591 3.56954L8.31824 0.895819C8.31824 0.763783 8.29844 0.67796 8.25883 0.638349C8.23242 0.598738 8.1598 0.578933 8.04097 0.578933H0.0792211C0.0528148 0.578933 0.0396105 0.618544 0.0396105 0.697765C0.0396105 0.776987 0.0528148 0.816597 0.0792211 0.816597C0.55455 0.816597 0.897842 0.856208 1.1091 0.935429C1.33356 1.00145 1.4854 1.12688 1.56462 1.31173C1.64384 1.49658 1.68345 1.78706 1.68345 2.18317V11.353C1.68345 11.7492 1.64384 12.0462 1.56462 12.2443C1.4854 12.4291 1.33356 12.5546 1.1091 12.6206C0.884638 12.6866 0.534744 12.7196 0.0594158 12.7196C0.0198053 12.7196 0 12.7592 0 12.8384C0 12.9177 0.0198053 12.9573 0.0594158 12.9573C0.48193 12.9573 0.818621 12.9507 1.06949 12.9375L2.45586 12.9177C2.78595 12.9177 3.08963 12.9243 3.36691 12.9375C3.64418 12.9507 3.88185 12.9639 4.0799 12.9771C4.55523 13.0167 4.97114 13.0365 5.32764 13.0365C6.13306 13.0365 6.85265 12.8781 7.48642 12.5612C8.12019 12.2311 8.60873 11.7822 8.95202 11.2144C9.30851 10.6467 9.48676 9.99968 9.48676 9.27348C9.48676 8.12477 9.06425 7.28635 8.21922 6.7582ZM7.11012 11.9274C6.6612 12.4027 5.9416 12.6404 4.95134 12.6404C4.27796 12.6404 3.82243 12.5348 3.58477 12.3235C3.36031 12.1122 3.24808 11.7888 3.24808 11.353V6.50073C3.57816 6.44792 3.93466 6.42151 4.31756 6.42151C5.43987 6.42151 6.2981 6.68558 6.89226 7.21372C7.49963 7.74187 7.80331 8.6001 7.80331 9.78842C7.80331 10.7391 7.57225 11.4521 7.11012 11.9274Z" fill="#FFDF96"/>
<path d="M24.6837 12.8384C24.6837 12.7592 24.6704 12.7196 24.644 12.7196C24.1555 12.7196 23.799 12.6866 23.5746 12.6206C23.3501 12.5546 23.1917 12.4291 23.0992 12.2443C23.02 12.0462 22.9804 11.7492 22.9804 11.353V2.18317C22.9804 1.78706 23.02 1.49658 23.0992 1.31173C23.1917 1.12688 23.3501 1.00145 23.5746 0.935429C23.799 0.856208 24.1555 0.816597 24.644 0.816597C24.6704 0.816597 24.6837 0.776987 24.6837 0.697765C24.6837 0.618544 24.6704 0.578933 24.644 0.578933L23.6142 0.598738C23.0332 0.625145 22.5579 0.638349 22.1882 0.638349C21.7657 0.638349 21.2507 0.625145 20.6434 0.598738L19.6927 0.578933C19.6531 0.578933 19.6333 0.618544 19.6333 0.697765C19.6333 0.776987 19.6531 0.816597 19.6927 0.816597C20.1944 0.816597 20.5575 0.856208 20.782 0.935429C21.0197 1.01465 21.1781 1.15329 21.2573 1.35134C21.3498 1.53619 21.396 1.82667 21.396 2.22278V2.69811L14.4245 10.1449V2.22278C14.4245 1.82667 14.4641 1.53619 14.5433 1.35134C14.6357 1.15329 14.8008 1.01465 15.0384 0.935429C15.2761 0.856208 15.6392 0.816597 16.1277 0.816597C16.1542 0.816597 16.1674 0.776987 16.1674 0.697765C16.1674 0.618544 16.1542 0.578933 16.1277 0.578933L15.1375 0.598738C14.5301 0.625145 14.0152 0.638349 13.5927 0.638349C13.223 0.638349 12.7608 0.625145 12.2063 0.598738L11.1962 0.578933C11.1566 0.578933 11.1368 0.618544 11.1368 0.697765C11.1368 0.776987 11.1566 0.816597 11.1962 0.816597C11.6847 0.816597 12.0412 0.856208 12.2657 0.935429C12.4902 1.00145 12.642 1.12688 12.7212 1.31173C12.8004 1.49658 12.8401 1.78706 12.8401 2.18317V11.353C12.8401 11.7492 12.7938 12.0462 12.7014 12.2443C12.6222 12.4291 12.4638 12.5546 12.2261 12.6206C12.0016 12.6866 11.6451 12.7196 11.1566 12.7196C11.1302 12.7196 11.117 12.7592 11.117 12.8384C11.117 12.9177 11.1302 12.9573 11.1566 12.9573C11.5923 12.9573 11.9356 12.9507 12.1865 12.9375L13.5927 12.9177L15.1177 12.9375C15.3685 12.9507 15.7052 12.9573 16.1277 12.9573C16.1542 12.9573 16.1674 12.9177 16.1674 12.8384C16.1674 12.7592 16.1542 12.7196 16.1277 12.7196C15.626 12.7196 15.2563 12.6866 15.0186 12.6206C14.781 12.5546 14.6225 12.4291 14.5433 12.2443C14.4641 12.0462 14.4245 11.7492 14.4245 11.353V10.8381L21.396 3.4111V11.353C21.396 11.7492 21.3564 12.0462 21.2771 12.2443C21.1979 12.4291 21.0395 12.5546 20.8018 12.6206C20.5641 12.6866 20.1944 12.7196 19.6927 12.7196C19.6531 12.7196 19.6333 12.7592 19.6333 12.8384C19.6333 12.9177 19.6531 12.9573 19.6927 12.9573C20.0888 12.9573 20.4057 12.9507 20.6434 12.9375L22.1882 12.9177L23.6142 12.9375C23.865 12.9507 24.2083 12.9573 24.644 12.9573C24.6704 12.9573 24.6837 12.9177 24.6837 12.8384Z" fill="#FFDF96"/>
<path d="M53.5529 12.8384C53.5529 12.7592 53.5397 12.7196 53.5133 12.7196C53.0247 12.7064 52.5824 12.5744 52.1863 12.3235C51.7902 12.0594 51.4073 11.7029 51.0376 11.254C50.6679 10.8051 50.1662 10.1317 49.5324 9.23387C48.925 8.38884 48.4893 7.80789 48.2252 7.491C47.9612 7.16091 47.6905 6.91004 47.4132 6.7384C47.1492 6.55355 46.8191 6.44132 46.423 6.40171L49.0769 3.0348C49.6578 2.2954 50.2454 1.74085 50.8396 1.37115C51.4337 1.00145 52.0543 0.816597 52.7013 0.816597C52.7409 0.816597 52.7607 0.776987 52.7607 0.697765C52.7607 0.618544 52.7409 0.578933 52.7013 0.578933L51.9487 0.598738C51.4469 0.625145 50.9584 0.638349 50.4831 0.638349C50.0473 0.638349 49.5654 0.625145 49.0373 0.598738L48.1658 0.578933C48.1394 0.578933 48.1262 0.618544 48.1262 0.697765C48.1262 0.776987 48.1394 0.816597 48.1658 0.816597C48.7864 0.816597 49.0967 1.01465 49.0967 1.41076C49.0967 1.80686 48.8128 2.39442 48.2451 3.17343L45.9476 6.3621H45.6902C45.5185 6.3621 45.0762 6.3753 44.3632 6.40171V2.22278C44.3632 1.82667 44.4028 1.53619 44.482 1.35134C44.5745 1.15329 44.7329 1.01465 44.9574 0.935429C45.195 0.856208 45.5515 0.816597 46.0269 0.816597C46.0533 0.816597 46.0665 0.776987 46.0665 0.697765C46.0665 0.618544 46.0533 0.578933 46.0269 0.578933L45.0168 0.598738C44.4094 0.625145 43.9077 0.638349 43.5116 0.638349C43.1551 0.638349 42.6996 0.625145 42.145 0.598738L41.1349 0.578933C41.1085 0.578933 41.0953 0.618544 41.0953 0.697765C41.0953 0.776987 41.1085 0.816597 41.1349 0.816597C41.6235 0.816597 41.98 0.856208 42.2044 0.935429C42.4289 1.00145 42.5807 1.12688 42.66 1.31173C42.7392 1.49658 42.7788 1.78706 42.7788 2.18317V11.353C42.7788 11.7492 42.7326 12.0462 42.6401 12.2443C42.5609 12.4291 42.4091 12.5546 42.1846 12.6206C41.9602 12.6866 41.6037 12.7196 41.1151 12.7196C41.0887 12.7196 41.0755 12.7592 41.0755 12.8384C41.0755 12.9177 41.0887 12.9573 41.1151 12.9573C41.5508 12.9573 41.8875 12.9507 42.1252 12.9375L43.5116 12.9177L44.997 12.9375C45.2479 12.9507 45.5911 12.9573 46.0269 12.9573C46.0533 12.9573 46.0665 12.9177 46.0665 12.8384C46.0665 12.7592 46.0533 12.7196 46.0269 12.7196C45.5383 12.7196 45.1752 12.6866 44.9376 12.6206C44.7131 12.5546 44.5613 12.4291 44.482 12.2443C44.4028 12.0462 44.3632 11.7492 44.3632 11.353V6.71859H44.5415C45.0036 6.71859 45.3733 6.78461 45.6506 6.91664C45.941 7.04868 46.2183 7.27974 46.4824 7.60983C46.7465 7.92672 47.1624 8.48787 47.7301 9.29329L47.9678 9.62998C48.7732 10.7787 49.341 11.5709 49.671 12.0066C50.0011 12.4423 50.2322 12.713 50.3642 12.8186C50.4963 12.9111 50.6547 12.9573 50.8396 12.9573H53.5133C53.5397 12.9573 53.5529 12.9177 53.5529 12.8384Z" fill="#FFDF96"/>
<path fill-rule="evenodd" clip-rule="evenodd" d="M60.1283 13.1949C58.9003 13.1949 57.8044 12.9111 56.8406 12.3433C55.8899 11.7624 55.1505 10.9833 54.6224 10.0063C54.1074 9.01601 53.85 7.93992 53.85 6.77801C53.85 5.41804 54.1933 4.25613 54.8799 3.29227C55.5664 2.3152 56.4445 1.5824 57.514 1.09387C58.5967 0.60534 59.6992 0.361074 60.8215 0.361074C62.0758 0.361074 63.1783 0.658154 64.129 1.25231C65.0796 1.83327 65.8058 2.60568 66.3075 3.56954C66.8225 4.5334 67.0799 5.55668 67.0799 6.63937C67.0799 7.84089 66.7631 8.94339 66.1293 9.94686C65.4955 10.9503 64.6439 11.7425 63.5744 12.3235C62.5181 12.9045 61.3694 13.1949 60.1283 13.1949ZM60.8215 12.7592C61.6665 12.7592 62.4257 12.5414 63.0991 12.1056C63.7724 11.6699 64.3006 11.0362 64.6835 10.2043C65.0796 9.35931 65.2777 8.35583 65.2777 7.19392C65.2777 5.96599 65.0598 4.87009 64.6241 3.90623C64.2016 2.94237 63.5876 2.18977 62.7822 1.64842C61.99 1.10708 61.0657 0.836402 60.0094 0.836402C58.6363 0.836402 57.5668 1.30513 56.801 2.24258C56.0352 3.16683 55.6523 4.44758 55.6523 6.08482C55.6523 7.33916 55.8701 8.47467 56.3058 9.49134C56.7415 10.508 57.3489 11.3068 58.1279 11.8878C58.9201 12.4687 59.818 12.7592 60.8215 12.7592Z" fill="#FFDF96"/>
<path d="M72.1625 12.2047C72.0569 12.0066 72.0041 11.6963 72.0041 11.2738V2.22278C72.0041 1.81347 72.0437 1.51639 72.1229 1.33154C72.2021 1.13348 72.3341 1.00805 72.519 0.955235C72.717 0.889217 73.0141 0.856208 73.4102 0.856208C74.2817 0.856208 74.9815 1.15329 75.5096 1.74745C76.0378 2.32841 76.3018 3.14042 76.3018 4.18351C76.3018 5.253 76.0311 6.07162 75.4898 6.63937C74.9484 7.20712 74.2883 7.491 73.5093 7.491C73.2452 7.491 73.0075 7.46459 72.7963 7.41178C72.7699 7.39858 72.7434 7.41178 72.717 7.45139C72.7038 7.491 72.6972 7.53061 72.6972 7.57022C72.6972 7.63624 72.717 7.66925 72.7566 7.66925C73.0075 7.73527 73.3244 7.76828 73.7073 7.76828C74.4203 7.76828 75.1069 7.62304 75.7671 7.33256C76.4405 7.04208 76.9884 6.59976 77.4109 6.0056C77.8466 5.41144 78.0645 4.68524 78.0645 3.82701C78.0645 2.71791 77.6882 1.89269 76.9356 1.35134C76.183 0.796792 75.1861 0.519517 73.945 0.519517C73.6941 0.519517 73.397 0.53272 73.0537 0.559127C72.7236 0.572331 72.4794 0.578933 72.3209 0.578933C71.8852 0.618544 71.5089 0.638349 71.192 0.638349C70.8487 0.638349 70.3998 0.625145 69.8453 0.598738L68.8154 0.578933C68.789 0.578933 68.7758 0.618544 68.7758 0.697765C68.7758 0.776987 68.789 0.816597 68.8154 0.816597C69.2907 0.816597 69.634 0.856208 69.8453 0.935429C70.0697 1.00145 70.2216 1.12688 70.3008 1.31173C70.38 1.49658 70.4196 1.78706 70.4196 2.18317V11.353C70.4196 11.7492 70.38 12.0462 70.3008 12.2443C70.2216 12.4291 70.0697 12.5546 69.8453 12.6206C69.634 12.6866 69.2907 12.7196 68.8154 12.7196C68.789 12.7196 68.7758 12.7592 68.7758 12.8384C68.7758 12.9177 68.789 12.9573 68.8154 12.9573C69.2511 12.9573 69.5944 12.9507 69.8453 12.9375L71.2118 12.9177L72.9349 12.9375C73.2386 12.9507 73.6611 12.9573 74.2024 12.9573C74.242 12.9573 74.2619 12.9177 74.2619 12.8384C74.2619 12.7592 74.242 12.7196 74.2024 12.7196C73.5423 12.7196 73.0603 12.68 72.7566 12.6008C72.4662 12.5216 72.2681 12.3895 72.1625 12.2047Z" fill="#FFDF96"/>
<path d="M82.8158 11.2738C82.8158 11.6963 82.8686 12.0066 82.9742 12.2047C83.0798 12.3895 83.2779 12.5216 83.5684 12.6008C83.872 12.68 84.354 12.7196 85.0141 12.7196C85.0538 12.7196 85.0736 12.7592 85.0736 12.8384C85.0736 12.9177 85.0538 12.9573 85.0141 12.9573C84.4728 12.9573 84.0503 12.9507 83.7466 12.9375L82.0236 12.9177L80.657 12.9375C80.4061 12.9507 80.0628 12.9573 79.6271 12.9573C79.6007 12.9573 79.5875 12.9177 79.5875 12.8384C79.5875 12.7592 79.6007 12.7196 79.6271 12.7196C80.1024 12.7196 80.4457 12.6866 80.657 12.6206C80.8814 12.5546 81.0333 12.4291 81.1125 12.2443C81.1917 12.0462 81.2313 11.7492 81.2313 11.353V2.18317C81.2313 1.78706 81.1917 1.49658 81.1125 1.31173C81.0333 1.12688 80.8814 1.00145 80.657 0.935429C80.4457 0.856208 80.1024 0.816597 79.6271 0.816597C79.6007 0.816597 79.5875 0.776987 79.5875 0.697765C79.5875 0.618544 79.6007 0.578933 79.6271 0.578933L80.657 0.598738C81.2115 0.625145 81.6605 0.638349 82.0037 0.638349C82.3206 0.638349 82.6969 0.618544 83.1326 0.578933C83.2911 0.578933 83.5353 0.572331 83.8654 0.559127C84.2087 0.53272 84.5058 0.519517 84.7567 0.519517C85.9978 0.519517 86.9947 0.796792 87.7473 1.35134C88.4999 1.89269 88.8762 2.71791 88.8762 3.82701C88.8762 4.68524 88.6583 5.41144 88.2226 6.0056C87.8001 6.59976 87.2522 7.04208 86.5788 7.33256C85.9186 7.62304 85.232 7.76828 84.519 7.76828C84.1361 7.76828 83.8192 7.73527 83.5684 7.66925C83.5287 7.66925 83.509 7.63624 83.509 7.57022C83.509 7.53061 83.5155 7.491 83.5287 7.45139C83.5552 7.41178 83.5816 7.39858 83.608 7.41178C83.8192 7.46459 84.0569 7.491 84.321 7.491C85.1 7.491 85.7602 7.20712 86.3015 6.63937C86.8428 6.07162 87.1135 5.253 87.1135 4.18351C87.1135 3.14042 86.8495 2.32841 86.3213 1.74745C85.7932 1.15329 85.0934 0.856208 84.2219 0.856208C83.8258 0.856208 83.5288 0.889217 83.3307 0.955235C83.1459 1.00805 83.0138 1.13348 82.9346 1.33154C82.8554 1.51639 82.8158 1.81347 82.8158 2.22278V11.2738Z" fill="#FFDF96"/>
<path d="M99.2918 9.90725C99.239 9.90725 99.2126 9.92046 99.2126 9.94686C99.0277 10.7655 98.6844 11.3993 98.1827 11.8482C97.6942 12.2839 97.0736 12.5018 96.321 12.5018H95.0336C94.4923 12.5018 94.1292 12.4159 93.9444 12.2443C93.7727 12.0726 93.6869 11.7492 93.6869 11.2738V6.7384H95.8061C96.5191 6.7384 97.034 6.87703 97.3509 7.15431C97.681 7.41838 97.846 7.83429 97.846 8.40205C97.846 8.42845 97.8856 8.44166 97.9649 8.44166C98.0441 8.44166 98.0837 8.42845 98.0837 8.40205C98.0837 8.16438 98.0705 7.83429 98.0441 7.41178L98.0243 6.52054L98.0441 4.85689C98.0441 4.83048 98.0045 4.81728 97.9252 4.81728C97.8592 4.81728 97.8262 4.83048 97.8262 4.85689C97.8262 5.34542 97.6678 5.70852 97.3509 5.94618C97.034 6.17064 96.5388 6.28287 95.8655 6.28287H93.6869V2.26239C93.6869 1.78706 93.7859 1.47017 93.984 1.31173C94.182 1.14008 94.5715 1.05426 95.1525 1.05426H96.1625C96.8491 1.05426 97.4037 1.24571 97.8262 1.62862C98.2487 1.99832 98.5062 2.54626 98.5986 3.27246C98.6118 3.31207 98.6514 3.33188 98.7174 3.33188C98.7967 3.31867 98.8363 3.29227 98.8363 3.25266L98.7967 0.757181C98.7967 0.638349 98.7307 0.578933 98.5986 0.578933H90.518C90.4784 0.578933 90.4586 0.618544 90.4586 0.697765C90.4586 0.776987 90.4784 0.816597 90.518 0.816597C90.9802 0.816597 91.3168 0.856208 91.5281 0.935429C91.7526 1.00145 91.9044 1.12688 91.9836 1.31173C92.0629 1.49658 92.1025 1.78706 92.1025 2.18317V11.353C92.1025 11.7492 92.0629 12.0462 91.9836 12.2443C91.9044 12.4291 91.7592 12.5546 91.5479 12.6206C91.3366 12.6866 90.9934 12.7196 90.518 12.7196C90.4784 12.7196 90.4586 12.7592 90.4586 12.8384C90.4586 12.9177 90.4784 12.9573 90.518 12.9573H98.9551C99.0739 12.9573 99.1532 12.9375 99.1928 12.8979C99.2324 12.845 99.2522 12.7658 99.2522 12.6602C99.2522 11.8284 99.3182 10.9371 99.4502 9.98647C99.4502 9.97327 99.4304 9.96007 99.3908 9.94686C99.3644 9.92046 99.3314 9.90725 99.2918 9.90725Z" fill="#FFDF96"/>
<path d="M113.413 12.7196C113.439 12.7196 113.452 12.7592 113.452 12.8384C113.452 12.9177 113.439 12.9573 113.413 12.9573H110.739C110.554 12.9573 110.396 12.9111 110.264 12.8186C110.132 12.713 109.901 12.4423 109.571 12.0066C109.241 11.5709 108.673 10.7787 107.867 9.62998L107.63 9.29329C107.062 8.48787 106.646 7.92672 106.382 7.60983C106.118 7.27974 105.841 7.04868 105.55 6.91664C105.273 6.78461 104.903 6.71859 104.441 6.71859H104.263V11.353C104.263 11.7492 104.302 12.0462 104.382 12.2443C104.461 12.4291 104.613 12.5546 104.837 12.6206C105.075 12.6866 105.438 12.7196 105.926 12.7196C105.953 12.7196 105.966 12.7592 105.966 12.8384C105.966 12.9177 105.953 12.9573 105.926 12.9573C105.491 12.9573 105.147 12.9507 104.897 12.9375L103.411 12.9177L102.025 12.9375C101.787 12.9507 101.45 12.9573 101.015 12.9573C100.988 12.9573 100.975 12.9177 100.975 12.8384C100.975 12.7592 100.988 12.7196 101.015 12.7196C101.503 12.7196 101.86 12.6866 102.084 12.6206C102.309 12.5546 102.461 12.4291 102.54 12.2443C102.632 12.0462 102.678 11.7492 102.678 11.353V2.18317C102.678 1.78706 102.639 1.49658 102.56 1.31173C102.48 1.12688 102.328 1.00145 102.104 0.935429C101.88 0.856208 101.523 0.816597 101.035 0.816597C101.008 0.816597 100.995 0.776987 100.995 0.697765C100.995 0.618544 101.008 0.578933 101.035 0.578933L102.045 0.598738C102.599 0.625145 103.055 0.638349 103.411 0.638349C103.807 0.638349 104.309 0.625145 104.916 0.598738L105.926 0.578933C105.953 0.578933 105.966 0.618544 105.966 0.697765C105.966 0.776987 105.953 0.816597 105.926 0.816597C105.451 0.816597 105.095 0.856208 104.857 0.935429C104.632 1.01465 104.474 1.15329 104.382 1.35134C104.302 1.53619 104.263 1.82667 104.263 2.22278V6.40171C104.976 6.3753 105.418 6.3621 105.59 6.3621H105.847L108.145 3.17343C108.712 2.39442 108.996 1.80686 108.996 1.41076C108.996 1.01465 108.686 0.816597 108.065 0.816597C108.039 0.816597 108.026 0.776987 108.026 0.697765C108.026 0.618544 108.039 0.578933 108.065 0.578933L108.937 0.598738C109.465 0.625145 109.947 0.638349 110.383 0.638349C110.858 0.638349 111.346 0.625145 111.848 0.598738L112.601 0.578933C112.64 0.578933 112.66 0.618544 112.66 0.697765C112.66 0.776987 112.64 0.816597 112.601 0.816597C111.954 0.816597 111.333 1.00145 110.739 1.37115C110.145 1.74085 109.557 2.2954 108.976 3.0348L106.323 6.40171C106.719 6.44132 107.049 6.55355 107.313 6.7384C107.59 6.91004 107.861 7.16091 108.125 7.491C108.389 7.80789 108.825 8.38884 109.432 9.23387C110.066 10.1317 110.567 10.8051 110.937 11.254C111.307 11.7029 111.69 12.0594 112.086 12.3235C112.482 12.5744 112.924 12.7064 113.413 12.7196Z" fill="#FFDF96"/>
<path fill-rule="evenodd" clip-rule="evenodd" d="M133.064 13.1949C131.836 13.1949 130.74 12.9111 129.776 12.3433C128.825 11.7624 128.086 10.9833 127.558 10.0063C127.043 9.01601 126.785 7.93992 126.785 6.77801C126.785 5.41804 127.129 4.25613 127.815 3.29227C128.502 2.3152 129.38 1.5824 130.449 1.09387C131.532 0.60534 132.635 0.361074 133.757 0.361074C135.011 0.361074 136.114 0.658154 137.064 1.25231C138.015 1.83327 138.741 2.60568 139.243 3.56954C139.758 4.5334 140.015 5.55668 140.015 6.63937C140.015 7.84089 139.699 8.94339 139.065 9.94686C138.431 10.9503 137.579 11.7425 136.51 12.3235C135.454 12.9045 134.305 13.1949 133.064 13.1949ZM133.757 12.7592C134.602 12.7592 135.361 12.5414 136.035 12.1056C136.708 11.6699 137.236 11.0362 137.619 10.2043C138.015 9.35931 138.213 8.35583 138.213 7.19392C138.213 5.96599 137.995 4.87009 137.56 3.90623C137.137 2.94237 136.523 2.18977 135.718 1.64842C134.925 1.10708 134.001 0.836402 132.945 0.836402C131.572 0.836402 130.502 1.30513 129.736 2.24258C128.971 3.16683 128.588 4.44758 128.588 6.08482C128.588 7.33916 128.806 8.47467 129.241 9.49134C129.677 10.508 130.284 11.3068 131.063 11.8878C131.856 12.4687 132.754 12.7592 133.757 12.7592Z" fill="#FFDF96"/>
<path d="M145.098 12.2047C144.992 12.0066 144.94 11.6963 144.94 11.2738V2.22278C144.94 1.81347 144.979 1.51639 145.058 1.33154C145.138 1.13348 145.27 1.00805 145.455 0.955235C145.653 0.889217 145.95 0.856208 146.346 0.856208C147.217 0.856208 147.917 1.15329 148.445 1.74745C148.973 2.32841 149.237 3.14042 149.237 4.18351C149.237 5.253 148.967 6.07162 148.425 6.63937C147.884 7.20712 147.224 7.491 146.445 7.491C146.181 7.491 145.943 7.46459 145.732 7.41178C145.705 7.39858 145.679 7.41178 145.653 7.45139C145.639 7.491 145.633 7.53061 145.633 7.57022C145.633 7.63624 145.653 7.66925 145.692 7.66925C145.943 7.73527 146.26 7.76828 146.643 7.76828C147.356 7.76828 148.042 7.62304 148.703 7.33256C149.376 7.04208 149.924 6.59976 150.346 6.0056C150.782 5.41144 151 4.68524 151 3.82701C151 2.71791 150.624 1.89269 149.871 1.35134C149.119 0.796792 148.122 0.519517 146.88 0.519517C146.63 0.519517 146.333 0.53272 145.989 0.559127C145.659 0.572331 145.415 0.578933 145.256 0.578933C144.821 0.618544 144.444 0.638349 144.128 0.638349C143.784 0.638349 143.335 0.625145 142.781 0.598738L141.751 0.578933C141.725 0.578933 141.711 0.618544 141.711 0.697765C141.711 0.776987 141.725 0.816597 141.751 0.816597C142.226 0.816597 142.57 0.856208 142.781 0.935429C143.005 1.00145 143.157 1.12688 143.236 1.31173C143.316 1.49658 143.355 1.78706 143.355 2.18317V11.353C143.355 11.7492 143.316 12.0462 143.236 12.2443C143.157 12.4291 143.005 12.5546 142.781 12.6206C142.57 12.6866 142.226 12.7196 141.751 12.7196C141.725 12.7196 141.711 12.7592 141.711 12.8384C141.711 12.9177 141.725 12.9573 141.751 12.9573C142.187 12.9573 142.53 12.9507 142.781 12.9375L144.147 12.9177L145.87 12.9375C146.174 12.9507 146.597 12.9573 147.138 12.9573C147.178 12.9573 147.197 12.9177 147.197 12.8384C147.197 12.7592 147.178 12.7196 147.138 12.7196C146.478 12.7196 145.996 12.68 145.692 12.6008C145.402 12.5216 145.204 12.3895 145.098 12.2047Z" fill="#FFDF96"/>
</svg>
